<svg height="24" viewBox="0 0 24 24" width="24" xmlns="http://www.w3.org/2000/svg"><path d="m5.56 20c.18 0 .3-.12.3-.3v-5.32h5.14v5.32c0 .18.12.3.3.3h2.26c.18 0 .3-.12.3-.3v-13.4c0-.18-.12-.3-.3-.3h-2.26c-.18 0-.3.12-.3.3v5.56h-5.14v-5.56c0-.18-.12-.3-.3-.3h-2.26c-.18 0-.3.12-.3.3v13.4c0 .18.12.3.3.3zm12.998.156c.4506667 0 .8775-.0563333 1.2805-.169s.754-.2838333 1.053-.5135.5373333-.5178333.715-.8645.2665-.7496667.2665-1.209c0-.2686667-.039-.5243333-.117-.767s-.1906667-.4593333-.338-.65-.3271667-.351-.5395-.481-.4571667-.2123333-.7345-.247v-.039c.5113333-.104.9013333-.338 1.17-.702s.403-.8016667.403-1.313c0-.442-.0845-.8233333-.2535-1.144s-.3965-.5871667-.6825-.7995-.6175-.3683333-.9945-.468-.7691667-.1495-1.1765-.1495c-.39 0-.7605.0411667-1.1115.1235s-.6695.2101667-.9555.3835-.533.4008333-.741.6825-.364.6218333-.468 1.0205l2.145.442c.0606667-.2426667.1906667-.4463333.39-.611s.4506667-.247.754-.247c.3206667 0 .5915.091.8125.273s.3315.4116667.3315.689c0 .2166667-.0433333.3921667-.13.5265s-.2015.2383333-.3445.312-.3011667.1235-.4745.1495-.351.039-.533.039h-.637v1.69h.455c.2166667 0 .4333333.0065.65.0195s.4116667.0541667.585.1235.3141667.1755.4225.3185.1625.3445.1625.6045c0 .3466667-.1018333.6305-.3055.8515s-.5178333.3315-.9425.3315c-.416 0-.7301667-.0953333-.9425-.286s-.3531667-.4506667-.4225-.78l-2.054.481c.1906667.8233333.5828333 1.4256667 1.1765 1.807s1.3021667.572 2.1255.572z"/></svg>