<svg height="24" viewBox="0 0 24 24" width="24" xmlns="http://www.w3.org/2000/svg"><path d="m4.56 20c.18 0 .3-.12.3-.3v-5.32h5.14v5.32c0 .18.12.3.3.3h2.26c.18 0 .3-.12.3-.3v-13.4c0-.18-.12-.3-.3-.3h-2.26c-.18 0-.3.12-.3.3v5.56h-5.14v-5.56c0-.18-.12-.3-.3-.3h-2.26c-.18 0-.3.12-.3.3v13.4c0 .18.12.3.3.3zm17.368 0v-2.112h-5.024l3.44-2.96c.2133333-.192.4106667-.3893333.592-.592s.3386667-.424.472-.664.2373333-.5066667.312-.8.112-.6213333.112-.984c0-.5653333-.0933333-1.0613333-.28-1.488-.1866667-.42666667-.4453333-.78133333-.776-1.064s-.72-.496-1.168-.64-.928-.216-1.44-.216c-.5546667 0-1.0693333.072-1.544.216s-.888.36-1.24.648-.6346667.648-.848 1.08-.336.9413333-.368 1.528l2.4.176c.032-.4053333.1733333-.7466667.424-1.024s.6-.416 1.048-.416c.3733333 0 .6986667.1093333.976.328s.416.52.416.904c0 .3413333-.112.64-.336.896s-.448.4853333-.672.688l-4.4 3.952v2.544z"/></svg>